<svg id="visual" viewBox="0 0 1920 1080" width="1920" height="1080" xmlns="http://www.w3.org/2000/svg" xmlns:xlink="http://www.w3.org/1999/xlink" version="1.1"><rect x="0" y="0" width="1920" height="1080" fill="#fff"></rect><defs><linearGradient id="grad1_0" x1="43.8%" y1="0%" x2="100%" y2="100%"><stop offset="14.444444444444446%" stop-color="#ffffff" stop-opacity="1"></stop><stop offset="85.55555555555554%" stop-color="#ffffff" stop-opacity="1"></stop></linearGradient></defs><defs><linearGradient id="grad2_0" x1="0%" y1="0%" x2="56.3%" y2="100%"><stop offset="14.444444444444446%" stop-color="#ffffff" stop-opacity="1"></stop><stop offset="85.55555555555554%" stop-color="#ffffff" stop-opacity="1"></stop></linearGradient></defs><g transform="translate(1920, 0)"><path d="M0 540C-50.7 476.5 -101.4 412.9 -160 386.2C-218.5 359.5 -285 369.6 -347.2 347.2C-409.4 324.8 -467.5 269.9 -498.9 206.6C-530.3 143.4 -535.2 71.7 -540 0L0 0Z" fill="#007D3E"></path></g><g transform="translate(0, 1080)"><path d="M0 -540C69.1 -532.1 138.2 -524.2 206.6 -498.9C275.1 -473.6 342.8 -431 371.2 -371.2C399.6 -311.5 388.6 -234.6 410.2 -169.9C431.8 -105.2 485.9 -52.6 540 0L0 0Z" fill="#007D3E"></path></g></svg>